#N canvas 0 0 1366 746 10;
#X obj 543 832 *~;
#X obj 543 745 *~;
#X obj 544 669 phasor~;
#X obj 439 262 timer;
#X msg 594 270 stop;
#X obj 545 429 hsl 256 15 -1 1 0 0 empty empty playback_speed -2 -8
0 10 -262144 -1 -1 18140 1;
#X obj 542 393 expr 1000/$f1;
#X obj 561 721 * 48;
#X obj 486 189 tgl 15 0 empty empty empty 17 7 0 10 -262144 -1 -1 0
1;
#X obj 486 210 sel 1;
#X obj 486 233 bng 15 250 50 0 empty empty empty 17 7 0 10 -262144
-1 -1;
#X obj 518 233 bng 15 250 50 0 empty empty empty 17 7 0 10 -262144
-1 -1;
#X msg 637 393 0;
#X msg 485 392 0;
#X obj 543 867 outlet~;
#X obj 411 55 inlet~;
#X obj 439 306 s \$0-length;
#X obj 561 698 r \$0-length;
#X obj 822 867 outlet;
#X text 408 36 Audio In;
#X text 639 -42 Message Routing;
#X obj 640 -22 inlet;
#X obj 1045 210 r \$0-isActive;
#X obj 1045 231 tgl 15 0 empty empty empty 17 7 0 10 -262144 -1 -1
1 1;
#X obj 649 270 s \$0-isActive;
#X msg 649 249 1;
#X msg 715 129 \; \$1 const 0 \;;
#X msg 618 109 0;
#X obj 627 130 s \$0-isActive;
#X obj 696 10 bng 15 250 50 0 empty empty Clear 17 7 0 10 -262144 -1
-1;
#X obj 17 254 loadbang;
#X obj 17 296 s \$0-isActive;
#X msg 17 275 0;
#X obj 1012 272 tgl 15 0 empty empty Overdubbing? 17 7 0 10 -262144
-1 -1 0 1;
#X obj 1012 250 spigot;
#X obj 1024 2 s \$0-recToggle;
#X obj 1012 188 r \$0-recToggle;
#X obj 395 112 r \$0-isActive;
#X obj 395 153 tgl 15 0 empty empty empty 17 7 0 10 -262144 -1 -1 0
1;
#X obj 362 172 spigot;
#X obj 362 90 r \$0-recToggle;
#X obj 395 133 == 0;
#X obj 618 151 s \$0-length;
#X obj 937 764 r \$0-length;
#X obj 374 456 spigot;
#X obj 407 434 != 0;
#X obj 374 412 t f f;
#X obj 374 391 r \$0-length;
#X obj 750 13 bng 15 250 50 0 empty empty Play 17 7 0 10 -262144 -1
-1;
#X obj 843 766 r \$0-isActive;
#X obj 95 558 sig~;
#X obj 199 474 *~;
#X obj 214 369 tgl 15 0 empty empty Overdubbing 0 -6 0 8 -262144 -1
-1 0 1;
#X obj 262 394 loadbang;
#X obj 214 441 line~;
#X obj 214 394 sel 1;
#X obj 95 579 vd~ \$0-overdubbuffer;
#X obj 198 503 delwrite~ \$0-overdubbuffer 30000;
#X obj 93 684 *~;
#X obj 362 115 bng 15 250 50 0 empty empty empty 17 7 0 10 -262144
-1 -1;
#X obj 1012 229 bng 15 250 50 0 empty empty empty 17 7 0 10 -262144
-1 -1;
#X obj 95 537 r \$0-length;
#X obj 649 227 delay 10;
#X obj 696 38 t b b b;
#X msg 735 63 0;
#X obj 618 89 delay 10;
#X obj 1460 463 == 0;
#X obj 1460 442 r cycle_length;
#X msg 1460 485 0;
#X obj 1460 506 s \$0-isActive;
#X obj 800 506 r \$0-length;
#X obj 819 592 delay;
#X obj 800 534 t b b f;
#X obj 819 613 t b b;
#X obj 819 659 t b b b;
#X obj 838 687 s \$0-loop-len-reached;
#X obj 1324 231 r \$0-loop-len-reached;
#X obj 1324 345 f 0;
#X floatatom 1324 387 5 0 0 0 - - -;
#X obj 1324 366 mod 4;
#X obj 1355 345 + 1;
#X obj 1324 305 spigot;
#X obj 1393 291 r \$0-length;
#X msg 1392 313 0;
#X obj 1324 407 / 4;
#X obj 898 27 s \$0-passing;
#X obj 1357 252 r \$0-passing;
#X text 592 720 sample rate;
#X obj 1357 278 tgl 15 0 empty empty empty 17 7 0 10 -262144 -1 -1
0 1;
#X obj 640 559 r \$0-playPos;
#X obj 800 747 vline~;
#X text 1458 412 is this necessary?;
#X obj 995 29 s \$0-playPos;
#N canvas 699 161 450 300 save 0;
#X obj 20 69 inlet;
#X obj 20 202 soundfiler;
#X obj 119 138 f \$0;
#X obj 119 118 bng 15 250 50 0 empty empty empty 17 7 0 10 -262144
-1 -1;
#X obj 20 138 savepanel;
#X obj 20 118 bng 15 250 50 0 empty empty empty 17 7 0 10 -262144 -1
-1;
#X obj 20 160 pack symbol float;
#X obj 20 90 t b b;
#X text 151 138 \$0 = unique id of patch;
#X msg 20 181 write -wave \$1 \$2-loop;
#X connect 0 0 7 0;
#X connect 2 0 6 1;
#X connect 3 0 2 0;
#X connect 4 0 6 0;
#X connect 5 0 4 0;
#X connect 6 0 9 0;
#X connect 7 0 5 0;
#X connect 7 1 3 0;
#X connect 9 0 1 0;
#X restore 1087 31 pd save;
#N canvas 669 270 450 300 open 0;
#X obj 114 239 soundfiler;
#X obj 114 91 openpanel;
#X msg 137 214 read -resize \$1 \$0-loop;
#X obj 115 62 inlet;
#X obj 159 141 f \$0;
#X obj 114 163 pack s f;
#X obj 114 113 t s b;
#X msg 114 187 read \$1 \$2-loop;
#X connect 1 0 6 0;
#X connect 3 0 1 0;
#X connect 4 0 5 1;
#X connect 5 0 7 0;
#X connect 6 0 5 0;
#X connect 6 1 4 0;
#X connect 7 0 0 0;
#X restore 1153 30 pd open;
#X obj 1154 6 bng 15 250 50 0 empty empty empty 17 7 0 10 -262144 -1
-1;
#N canvas 205 78 479 571 smoother 0;
#X obj 119 114 inlet;
#X obj 119 185 t b f b;
#X msg 169 184 set 0 \$1;
#X msg 125 400 set 1 \$1;
#X obj 298 102 inlet;
#X obj 41 392 outlet;
#X obj 158 505 outlet;
#X text 157 114 f playPos change;
#X text 337 103 f ms to fade;
#X text 38 414 f playPos;
#X text 158 523 msg to vline~;
#X text 9 41 inlets: [f] playPos \, [f] ms to fade;
#X text 9 58 outlets [f] playPos \, [msg( to vline~;
#X text 10 11 handles timing for fading level to zero while changing
playPos, f 70;
#X text 10 543 2020.06.06;
#X msg 158 207 0 5;
#X obj 138 279 pipe;
#X obj 119 325 delay;
#X msg 119 421 1 5;
#X connect 0 0 1 0;
#X connect 1 0 17 0;
#X connect 1 1 16 0;
#X connect 1 2 15 0;
#X connect 2 0 15 0;
#X connect 3 0 18 0;
#X connect 4 0 2 0;
#X connect 4 0 3 0;
#X connect 4 0 16 1;
#X connect 4 0 17 1;
#X connect 15 0 6 0;
#X connect 16 0 5 0;
#X connect 17 0 18 0;
#X connect 18 0 6 0;
#X restore 640 582 pd smoother;
#X obj 704 501 nbx 3 14 -1e+37 1e+37 0 1 empty empty empty 0 -8 0 10
-262144 -1 -1 5 256;
#X text 701 479 TODO: expose control \, message routing?;
#X text 702 464 time to fade to zero in ms;
#X obj 696 -25 route clear play quantize passing playPos save open
rec;
#X msg 935 819 length \$1;
#X msg 843 787 active \$1;
#X obj 119 615 r \$0-isActive;
#X msg 119 636 \$1 5;
#X obj 119 657 vline~;
#X msg 214 417 1 5;
#X msg 262 416 0 5;
#X msg 1033 820 overdub \$1;
#X msg 742 833 recording \$1;
#X obj 715 107 symbol \$1-loop;
#X obj 594 292 tabwrite~ \$1-loop;
#X obj 16 227 table \$1-loop 1.96e+06;
#X obj 543 769 tabread4~ \$1-loop;
#X obj 846 568 - 5;
#X obj 819 636 delay 5;
#X msg 846 723 0 5;
#X msg 800 722 1 5;
#X connect 0 0 14 0;
#X connect 1 0 113 0;
#X connect 2 0 1 0;
#X connect 3 0 16 0;
#X connect 4 0 111 0;
#X connect 5 0 2 0;
#X connect 6 0 5 0;
#X connect 7 0 1 1;
#X connect 8 0 9 0;
#X connect 8 0 109 0;
#X connect 9 0 10 0;
#X connect 9 1 11 0;
#X connect 10 0 3 0;
#X connect 10 0 13 0;
#X connect 10 0 111 0;
#X connect 11 0 3 1;
#X connect 11 0 12 0;
#X connect 11 0 4 0;
#X connect 11 0 62 0;
#X connect 12 0 2 1;
#X connect 13 0 5 0;
#X connect 15 0 51 0;
#X connect 15 0 111 0;
#X connect 17 0 7 0;
#X connect 21 0 100 0;
#X connect 22 0 23 0;
#X connect 23 0 34 1;
#X connect 25 0 24 0;
#X connect 27 0 28 0;
#X connect 27 0 42 0;
#X connect 29 0 63 0;
#X connect 30 0 32 0;
#X connect 32 0 31 0;
#X connect 33 0 52 0;
#X connect 33 0 108 0;
#X connect 34 0 33 0;
#X connect 36 0 60 0;
#X connect 37 0 41 0;
#X connect 38 0 39 1;
#X connect 39 0 8 0;
#X connect 40 0 59 0;
#X connect 41 0 38 0;
#X connect 43 0 101 0;
#X connect 44 0 6 0;
#X connect 45 0 44 1;
#X connect 46 0 44 0;
#X connect 46 1 45 0;
#X connect 47 0 46 0;
#X connect 48 0 12 0;
#X connect 49 0 102 0;
#X connect 50 0 56 0;
#X connect 51 0 57 0;
#X connect 52 0 55 0;
#X connect 53 0 107 0;
#X connect 54 0 51 1;
#X connect 55 0 106 0;
#X connect 55 1 107 0;
#X connect 56 0 58 0;
#X connect 58 0 57 0;
#X connect 58 0 14 0;
#X connect 59 0 39 0;
#X connect 60 0 34 0;
#X connect 61 0 50 0;
#X connect 62 0 25 0;
#X connect 63 0 65 0;
#X connect 63 1 110 0;
#X connect 63 2 64 0;
#X connect 64 0 33 0;
#X connect 64 0 8 0;
#X connect 65 0 27 0;
#X connect 66 0 68 0;
#X connect 67 0 66 0;
#X connect 68 0 69 0;
#X connect 70 0 72 0;
#X connect 71 0 73 0;
#X connect 72 0 117 0;
#X connect 72 1 71 0;
#X connect 72 2 114 0;
#X connect 73 0 115 0;
#X connect 73 1 116 0;
#X connect 74 0 71 0;
#X connect 74 1 75 0;
#X connect 74 2 117 0;
#X connect 76 0 81 0;
#X connect 77 0 80 0;
#X connect 77 0 79 0;
#X connect 78 0 84 0;
#X connect 79 0 78 0;
#X connect 80 0 77 1;
#X connect 81 0 77 0;
#X connect 82 0 83 0;
#X connect 83 0 77 1;
#X connect 86 0 88 0;
#X connect 88 0 81 1;
#X connect 89 0 96 0;
#X connect 90 0 0 1;
#X connect 95 0 94 0;
#X connect 96 0 2 1;
#X connect 96 1 90 0;
#X connect 97 0 96 1;
#X connect 100 0 29 0;
#X connect 100 1 48 0;
#X connect 100 3 85 0;
#X connect 100 4 92 0;
#X connect 100 5 93 0;
#X connect 100 6 94 0;
#X connect 100 7 35 0;
#X connect 101 0 18 0;
#X connect 102 0 18 0;
#X connect 103 0 104 0;
#X connect 104 0 105 0;
#X connect 105 0 58 1;
#X connect 106 0 54 0;
#X connect 107 0 54 0;
#X connect 108 0 18 0;
#X connect 109 0 18 0;
#X connect 110 0 26 0;
#X connect 113 0 0 0;
#X connect 114 0 71 1;
#X connect 115 0 74 0;
#X connect 116 0 90 0;
#X connect 117 0 90 0;
