#N canvas 196 15 1099 692 10;
#X obj 73 67 delwrite~ 0$-delay 10000;
#X obj 150 383 hsl 128 15 0 10000 0 0 empty empty delay_time -2 -8
0 10 -262144 -1 -1 0 1;
#X floatatom 215 367 10 0 0 0 - - -;
#X obj 294 590 vd~ 0$-delay 2000;
#X obj 294 540 vline~;
#X obj 290 423 timer;
#X obj 290 445 nbx 5 14 -1e+37 1e+37 0 0 empty empty empty 0 -8 0 10
-262144 -1 -1 0 256;
#X obj 66 633 outlet~;
#X obj 294 635 outlet~;
#X obj 294 612 *~;
#X obj 412 592 vline~ 50;
#X obj 66 41 inlet~;
#X obj 293 515 pack f f;
#X floatatom 106 281 7 0 0 1 delayline_change_ms - -;
#X obj 105 119 vsl 20 95 0 120 0 1 empty empty threshold 0 110 0 10
-262144 -1 -1 2200 1;
#N canvas 0 22 450 278 (subpatch) 0;
#X array \$0-envelope 250 float 1;
#A 0 0 0 0 0 0 0 0 0 0 0 0 0 0 0 0 0 0 0 0 0 0 0 0 0 0 0 0 0 0 0 0
0 0 0 0 0 0 0 0 0 0 0 0 0 0 0 0 0 0 0 0 0 0 0 0 0 0 0 0 0 0 0 0 0 0
0 0 0 0 0 0 0 0 0 0 0 0 0 0 0 0 0 0 0 0 0 0 0 0 0 0 0 0 0 0 0 0 0 0
0 0 0 0 0 0 0 0 0 0 0 0 0 0 0 0 0 0 0 0 0 0 0 0 0 0 0 0 0 0 0 0 0 0
0 0 0 0 0 0 0 0 0 0 0 0 0 0 0 0 0 0 0 0 0 0 0 0 0 0 0 0 0 0 0 0 0 0
0 0 0 0 0 0 0 0 0 0 0 0 0 0 0 0 0 0 0 0 0 0 0 0 0 0 0 0 0 0 0 0 0 0
0 0 0 0 0 0 0 0 0 0 0 0 0 0 0 0 0 0 0 0 0 0 0 0 0 0 0 0 0 0 0 0 0 0
0 0 0 0 0 0 0 0 0 0 0 0 0 0 0;
#X coords 0 120 249 0 150 100 2 0 0;
#X restore 125 117 graph;
#N canvas 0 22 450 300 draw_env 0;
#X obj 66 41 inlet;
#X obj 66 92 list;
#X obj 66 113 list prepend 0;
#X obj 66 134 list trim;
#X obj 128 50 list split 250;
#X obj 66 155 s \$0-envelope;
#X connect 0 0 1 0;
#X connect 1 0 2 0;
#X connect 1 0 4 0;
#X connect 2 0 3 0;
#X connect 3 0 5 0;
#X connect 4 0 1 1;
#X connect 4 2 1 1;
#X restore 381 416 pd draw_env;
#X obj 106 325 vsl 20 60 0 2 0 1 empty empty delayline_gain 0 -9 0
10 -262144 -1 -1 5900 1;
#X floatatom 106 262 5 0 0 1 delayline_scale - -;
#X obj 292 491 *;
#X obj 290 464 t b f;
#X obj 302 561 avg~;
#X obj 381 152 env~;
#X obj 381 198 max~;
#X obj 381 223 snapshot~;
#X floatatom 381 267 5 0 0 0 - - -;
#X obj 444 199 metro 50;
#X obj 381 293 vsl 15 100 0 120 0 1 empty empty empty 0 -9 0 10 -262144
-1 -1 0 1;
#X obj 381 245 * 0.99;
#X obj 291 359 >;
#X floatatom 106 242 5 0 0 1 falloff - -;
#X obj 290 379 change;
#X obj 446 155 loadbang;
#X msg 446 176 1;
#X text 107 386 dry;
#X text 255 385 wet;
#X text 5 3 23.01.20 figure-ground threshold-crossing delayline modulator
;
#X obj 290 401 sel 1;
#X obj 402 174 f;
#X connect 2 0 1 0;
#X connect 3 0 9 0;
#X connect 4 0 3 0;
#X connect 4 0 21 0;
#X connect 5 0 6 0;
#X connect 6 0 20 0;
#X connect 9 0 8 0;
#X connect 10 0 9 1;
#X connect 11 0 7 0;
#X connect 11 0 0 0;
#X connect 11 0 22 0;
#X connect 12 0 4 0;
#X connect 13 0 12 1;
#X connect 14 0 29 1;
#X connect 17 0 10 0;
#X connect 18 0 19 0;
#X connect 19 0 12 0;
#X connect 20 0 19 0;
#X connect 20 1 19 1;
#X connect 21 0 2 0;
#X connect 22 0 23 0;
#X connect 23 0 24 0;
#X connect 24 0 28 0;
#X connect 25 0 27 0;
#X connect 25 0 38 0;
#X connect 26 0 24 0;
#X connect 27 0 16 0;
#X connect 27 0 29 0;
#X connect 28 0 25 0;
#X connect 29 0 31 0;
#X connect 30 0 28 1;
#X connect 31 0 37 0;
#X connect 32 0 33 0;
#X connect 33 0 26 0;
#X connect 37 0 5 0;
#X connect 37 1 5 1;
#X connect 38 0 23 1;
#X coords 0 -1 1 1 180 300 2 100 100;
